<svg width="200" height="200" viewBox="0 0 200 200" xmlns="http://www.w3.org/2000/svg">
  <!-- 고양이 몸체 -->
  <ellipse cx="100" cy="130" rx="35" ry="45" fill="#ff6b6b" stroke="#ff5252" stroke-width="2"/>

  <!-- 고양이 머리 -->
  <circle cx="100" cy="80" r="35" fill="#ff6b6b" stroke="#ff5252" stroke-width="2"/>

  <!-- 고양이 귀 -->
  <path d="M75 60 L85 40 L95 60 Z" fill="#ff6b6b" stroke="#ff5252" stroke-width="2"/>
  <path d="M105 60 L115 40 L125 60 Z" fill="#ff6b6b" stroke="#ff5252" stroke-width="2"/>

  <!-- 귀 안쪽 -->
  <path d="M78 58 L85 45 L92 58 Z" fill="#ff8a80"/>
  <path d="M108 58 L115 45 L122 58 Z" fill="#ff8a80"/>

  <!-- 고양이 눈 -->
  <ellipse cx="90" cy="75" rx="5" ry="8" fill="#2c3e50"/>
  <ellipse cx="110" cy="75" rx="5" ry="8" fill="#2c3e50"/>

  <!-- 눈 반짝임 -->
  <circle cx="92" cy="72" r="2" fill="white"/>
  <circle cx="112" cy="72" r="2" fill="white"/>

  <!-- 고양이 코 -->
  <path d="M100 85 L95 90 L105 90 Z" fill="#e91e63"/>

  <!-- 고양이 입 -->
  <path d="M100 92 Q95 96 90 94" stroke="#2c3e50" stroke-width="2" fill="none"/>
  <path d="M100 92 Q105 96 110 94" stroke="#2c3e50" stroke-width="2" fill="none"/>

  <!-- 고양이 수염 -->
  <line x1="65" y1="80" x2="85" y2="82" stroke="#2c3e50" stroke-width="1.5"/>
  <line x1="65" y1="88" x2="85" y2="88" stroke="#2c3e50" stroke-width="1.5"/>
  <line x1="115" y1="82" x2="135" y2="80" stroke="#2c3e50" stroke-width="1.5"/>
  <line x1="115" y1="88" x2="135" y2="88" stroke="#2c3e50" stroke-width="1.5"/>

  <!-- 고양이 발 -->
  <ellipse cx="80" cy="170" rx="8" ry="12" fill="#ff6b6b" stroke="#ff5252" stroke-width="2"/>
  <ellipse cx="120" cy="170" rx="8" ry="12" fill="#ff6b6b" stroke="#ff5252" stroke-width="2"/>

  <!-- 고양이 팔 -->
  <ellipse cx="70" cy="120" rx="8" ry="20" fill="#ff6b6b" stroke="#ff5252" stroke-width="2"/>
  <ellipse cx="130" cy="120" rx="8" ry="20" fill="#ff6b6b" stroke="#ff5252" stroke-width="2"/>

  <!-- 고양이 꼬리 -->
  <path d="M135 140 Q155 130 160 110 Q165 90 150 80" stroke="#ff6b6b" stroke-width="15" fill="none" stroke-linecap="round"/>

  <!-- 고양이 배 무늬 -->
  <ellipse cx="100" cy="135" rx="15" ry="20" fill="#ff8a80"/>

  <!-- 볼 홍조 -->
  <circle cx="75" cy="85" r="6" fill="#ff8a80" opacity="0.6"/>
  <circle cx="125" cy="85" r="6" fill="#ff8a80" opacity="0.6"/>
</svg>